<svg width="34" height="25" viewBox="0 0 34 25" fill="none" xmlns="http://www.w3.org/2000/svg">
<path d="M32.3301 4.54812C32.1573 3.8523 31.8055 3.21475 31.31 2.69988C30.8146 2.18502 30.1931 1.81106 29.5084 1.61579C27.0068 1 17 1 17 1C17 1 6.99325 1 4.49156 1.67444C3.80686 1.86971 3.18541 2.24366 2.68998 2.75853C2.19454 3.2734 1.84266 3.91094 1.66989 4.60677C1.21204 7.16605 0.988084 9.76227 1.00083 12.3628C0.984511 14.9829 1.20848 17.5989 1.66989 20.1775C1.86036 20.8517 2.22012 21.465 2.71441 21.9581C3.20869 22.4512 3.82079 22.8075 4.49156 22.9925C6.99325 23.6669 17 23.6669 17 23.6669C17 23.6669 27.0068 23.6669 29.5084 22.9925C30.1931 22.7972 30.8146 22.4233 31.31 21.9084C31.8055 21.3935 32.1573 20.756 32.3301 20.0602C32.7844 17.5202 33.0084 14.9437 32.9992 12.3628C33.0155 9.74269 32.7915 7.12667 32.3301 4.54812V4.54812Z" stroke="#868587" stroke-width="2" stroke-linecap="round" stroke-linejoin="round"/>
<path d="M13.7273 17.1576L22.0905 12.3632L13.7273 7.56885V17.1576Z" stroke="#868587" stroke-width="2" stroke-linecap="round" stroke-linejoin="round"/>
</svg>
