<svg width="34" height="29" viewBox="0 0 34 29" fill="none" xmlns="http://www.w3.org/2000/svg">
<path d="M33 1.01463C31.6071 1.99714 30.0649 2.7486 28.4327 3.24008C27.5567 2.23282 26.3925 1.51891 25.0975 1.19488C23.8025 0.87086 22.4393 0.952366 21.1921 1.42838C19.945 1.90439 18.8741 2.75194 18.1243 3.8564C17.3746 4.96085 16.9821 6.26893 17 7.60372V9.05826C14.4438 9.12454 11.9109 8.55763 9.62692 7.408C7.3429 6.25838 5.37864 4.56173 3.90909 2.46917C3.90909 2.46917 -1.90909 15.5601 11.1818 21.3783C8.18622 23.4117 4.61768 24.4312 1 24.2874C14.0909 31.5601 30.0909 24.2874 30.0909 7.56008C30.0896 7.15492 30.0506 6.75076 29.9745 6.35281C31.4591 4.8888 32.5067 3.04039 33 1.01463V1.01463Z" stroke="#868587" stroke-width="2" stroke-linecap="round" stroke-linejoin="round"/>
</svg>
